<svg version="1.1" xmlns="http://www.w3.org/2000/svg" width="595.125" height="339" data-testid="graph" class="rounded-lg select-none [&amp;_div]:pointer-events-none font-mono border" xmlns:xlink="http://www.w3.org/1999/xlink"><style>
    .stroke-graph { stroke: #000000 !important; stroke-width: 1; }
    .fill-transparent { fill: transparent !important; }
    /* Ensure circle elements with fill-transparent still show their stroke */
    circle.fill-transparent { stroke: #000000 !important; }
    .text-foreground { fill: #000000 !important; }
    .rounded-lg { rx: 8; ry: 8; }
    .border { stroke: #000000 !important; stroke-width: 1; }
    .font-mono { font-family: ui-monospace, SFMono-Regular, "SF Mono", Consolas, "Liberation Mono", Menlo, monospace; }
    .text-center { text-anchor: middle; }
    .whitespace-nowrap { white-space: nowrap; }
    .leading-normal { line-height: 1.5; }
    .pointer-events-none { pointer-events: none; }
    text { fill: #000000 !important; dominant-baseline: central; alignment-baseline: middle; }
    path { stroke: #000000 !important; }
    circle { stroke: #000000 !important; }
    line { stroke: #000000 !important; }
    /* Preserve negative lookaround assertion red dashed style */
    rect.stroke-red-500 { stroke: #ef4444 !important; stroke-dasharray: 4 2 !important; }
    rect[class*="stroke-red-500"][class*="stroke-dasharray"] { stroke: #ef4444 !important; stroke-dasharray: 4 2 !important; }
    rect[class*="stroke-red-500"] { stroke: #ef4444 !important; }
    rect[class*="stroke-dasharray"] { stroke-dasharray: 4 2 !important; }
    rect:not([class*="stroke-red-500"]) { stroke: #000000 !important; }
  </style><circle cx="55" cy="169.5" r="5" class="stroke-[1.5] stroke-graph fill-transparent"/><path d="M60,169.5L85,169.5" class="stroke-[1.5] stroke-graph" fill="none"/><path d="M510.125,169.5L535.125,169.5" class="stroke-[1.5] stroke-graph" fill="none"/><circle cx="540.125" cy="169.5" r="5" class="stroke-[1.5] stroke-graph fill-transparent"/><g><rect x="85" y="155.5" width="116.765625" height="28" rx="5" ry="5" fill="transparent" class="stroke-[1.5] stroke-graph"/><foreignObject x="95" y="157.5" width="96.765625" height="24" font-size="16"><div xmlns="http://www.w3.org/1999/xhtml" class="text-center pointer-events-none whitespace-nowrap leading-normal text-foreground [&amp;&gt;span]:align-middle">Begins with</div></foreignObject></g><path d="M201.765625,169.5L226.765625,169.5" class="stroke-[1.5] stroke-graph" fill="none"/><foreignObject x="226.765625" y="45" width="159.1875" height="21" font-size="14"><div xmlns="http://www.w3.org/1999/xhtml" class="text-center pointer-events-none whitespace-nowrap leading-normal text-foreground [&amp;&gt;span]:align-middle">Group #1</div></foreignObject><g><rect x="226.765625" y="66" width="159.1875" height="207" rx="5" ry="5" class="stroke-[1.5] fill-transparent stroke-graph-group"/><path d="M226.765625,169.5L251.765625,169.5" class="stroke-[1.5] stroke-graph" fill="none"/><path d="M360.953125,169.5L385.953125,169.5" class="stroke-[1.5] stroke-graph" fill="none"/><g><path d="M251.765625,169.5L261.765625,169.5A5 5 0 0 0, 266.765625,164.5L266.765625,110A5 5 0 0 1, 271.765625,105L276.765625,105" class="stroke-[1.5] stroke-graph" fill="none"/><g><rect x="276.765625" y="91" width="59.1875" height="28" rx="5" ry="5" fill="transparent" class="stroke-[1.5] stroke-graph"/><foreignObject x="286.765625" y="93" width="39.1875" height="24" font-size="16"><div xmlns="http://www.w3.org/1999/xhtml" class="text-center pointer-events-none whitespace-nowrap leading-normal text-foreground [&amp;&gt;span]:align-middle"><span><span class="text-foreground/50 inline" style="padding-right: 2px;">"</span>&gt;=<span class="text-foreground/50 inline" style="padding-left: 2px;">"</span></span></div></foreignObject></g><path d="M335.953125,105L340.953125,105A5 5 0 0 1, 345.953125,110L345.953125,164.5A5 5 0 0 0, 350.953125,169.5L360.953125,169.5" class="stroke-[1.5] stroke-graph" fill="none"/><path d="M251.765625,169.5L261.765625,169.5A5 5 0 0 0, 266.765625,164.5L266.765625,153A5 5 0 0 1, 271.765625,148L276.765625,148" class="stroke-[1.5] stroke-graph" fill="none"/><g><rect x="276.765625" y="134" width="59.1875" height="28" rx="5" ry="5" fill="transparent" class="stroke-[1.5] stroke-graph"/><foreignObject x="286.765625" y="136" width="39.1875" height="24" font-size="16"><div xmlns="http://www.w3.org/1999/xhtml" class="text-center pointer-events-none whitespace-nowrap leading-normal text-foreground [&amp;&gt;span]:align-middle"><span><span class="text-foreground/50 inline" style="padding-right: 2px;">"</span>&lt;=<span class="text-foreground/50 inline" style="padding-left: 2px;">"</span></span></div></foreignObject></g><path d="M335.953125,148L340.953125,148A5 5 0 0 1, 345.953125,153L345.953125,164.5A5 5 0 0 0, 350.953125,169.5L360.953125,169.5" class="stroke-[1.5] stroke-graph" fill="none"/><path d="M251.765625,169.5L261.765625,169.5A5 5 0 0 1, 266.765625,174.5L266.765625,186A5 5 0 0 0, 271.765625,191L276.765625,191" class="stroke-[1.5] stroke-graph" fill="none"/><g><rect x="276.765625" y="177" width="59.1875" height="28" rx="5" ry="5" fill="transparent" class="stroke-[1.5] stroke-graph"/><foreignObject x="286.765625" y="179" width="39.1875" height="24" font-size="16"><div xmlns="http://www.w3.org/1999/xhtml" class="text-center pointer-events-none whitespace-nowrap leading-normal text-foreground [&amp;&gt;span]:align-middle"><span><span class="text-foreground/50 inline" style="padding-right: 2px;">"</span>==<span class="text-foreground/50 inline" style="padding-left: 2px;">"</span></span></div></foreignObject></g><path d="M335.953125,191L340.953125,191A5 5 0 0 0, 345.953125,186L345.953125,174.5A5 5 0 0 1, 350.953125,169.5L360.953125,169.5" class="stroke-[1.5] stroke-graph" fill="none"/><path d="M251.765625,169.5L261.765625,169.5A5 5 0 0 1, 266.765625,174.5L266.765625,229A5 5 0 0 0, 271.765625,234L276.765625,234" class="stroke-[1.5] stroke-graph" fill="none"/><g><rect x="276.765625" y="220" width="59.1875" height="28" rx="5" ry="5" fill="transparent" class="stroke-[1.5] stroke-graph"/><foreignObject x="286.765625" y="222" width="39.1875" height="24" font-size="16"><div xmlns="http://www.w3.org/1999/xhtml" class="text-center pointer-events-none whitespace-nowrap leading-normal text-foreground [&amp;&gt;span]:align-middle"><span><span class="text-foreground/50 inline" style="padding-right: 2px;">"</span>&lt;&gt;<span class="text-foreground/50 inline" style="padding-left: 2px;">"</span></span></div></foreignObject></g><path d="M335.953125,234L340.953125,234A5 5 0 0 0, 345.953125,229L345.953125,174.5A5 5 0 0 1, 350.953125,169.5L360.953125,169.5" class="stroke-[1.5] stroke-graph" fill="none"/></g></g><path d="M385.953125,169.5L410.953125,169.5" class="stroke-[1.5] stroke-graph" fill="none"/><g><rect x="410.953125" y="155.5" width="99.171875" height="28" rx="5" ry="5" fill="transparent" class="stroke-[1.5] stroke-graph"/><foreignObject x="420.953125" y="157.5" width="79.171875" height="24" font-size="16"><div xmlns="http://www.w3.org/1999/xhtml" class="text-center pointer-events-none whitespace-nowrap leading-normal text-foreground [&amp;&gt;span]:align-middle">Ends with</div></foreignObject></g></svg>